# xmcd
#
# Track frame offsets:
#	150
#	14488
#	33592
#	51524
#	66710
#	84042
#	98671
#	110312
#	127163
#	142726
#	156540
#	172735
#	187552
#	201783
#	215515
#	231185
#
# Disc length: 3360 seconds
#
# Revision: 1
# Processed by: cddbd v1.5.2PL0 Copyright (c) Steve Scherf et al.
# Submitted via: audiograbber 1.83.01
#
DISCID=d90d1e10
DTITLE=Country Music Awards Australia - The Winners 2010
DYEAR=2009
DGENRE=Country
TTITLE0=Troy Cassar-Daley - Big, Big Love
TTITLE1=Felicity Urquhart - Girl In The Mall
TTITLE2=Paul Costa - Survivor 1932
TTITLE3=Jayne Denham - Shake This Town
TTITLE4=Adam Brand - Ready For Love
TTITLE5=Amber Lawrence - Don't Do Lonely Well
TTITLE6=James Blundell - Good Wood
TTITLE7=Graham Rodger - The First Lady Of Country
TTITLE8=Harmony James - Precious Little
TTITLE9=Tommy Emmanuel - Jolly Swagman
TTITLE10=Troy Cassar-Daley feat. The McClymonts - Ain't Gonna Change For You
TTITLE11=Victoria Baillie - Make Me
TTITLE12=Greg Storer and Sara Storer - When I Was A Boy
TTITLE13=Tania Kernaghan - Second Time Around
TTITLE14=Jetty Road - Million Miles
TTITLE15=Carter and Carter - Surviving Black Saturday
EXTD=YEAR: 2009
EXTT0=
EXTT1=
EXTT2=
EXTT3=
EXTT4=
EXTT5=
EXTT6=
EXTT7=
EXTT8=
EXTT9=
EXTT10=
EXTT11=
EXTT12=
EXTT13=
EXTT14=
EXTT15=
PLAYORDER=
